# xmcd
#
# Track frame offsets:
#	150
#	18099
#	33941
#	52759
#	70415
#	79606
#	94636
#	107370
#	123511
#	141623
#	151751
#	171501
#	194016
#	208438
#	223208
#	239872
#	258477
#
# Disc length: 3738 seconds
#
# Revision: 0
# Processed by: cddbd v1.5PL3 Copyright (c) Steve Scherf et al.
# Submitted via: dBpowerAMP V4.0
#
DISCID=fc0e9811
DTITLE=Various Artist - Chooglin' - A Tribute To The Music Of John Fogerty
DYEAR=2002
DGENRE=Country
TTITLE0=Who'll Stop The Rain - Mark Mackay and Scott Williams
TTITLE1=Hey Tonight - Meredith Ochs and The Damn Lovelys
TTITLE2=Wrote A Song For Everyone - Big Silver
TTITLE3=Have You Ever Seen The Rain - Frog Holler
TTITLE4=Don't Look Now (It Ain't You Or Me) - Ray Mason Band
TTITLE5=Up Around The Bend - Gingersol
TTITLE6=Keep On Chooglin' - Western Electric
TTITLE7=It's Just a Thought - Scott McKnight
TTITLE8=Lodi - Calico Bind
TTITLE9=Lookin' Out My Back Door - John Jorgenson
TTITLE10=Someday Never Comes - The Good Sons
TTITLE11=Born On The Bayou - The Weissitronauts
TTITLE12=Fight Fire - backpack
TTITLE13=Run Through The Jungle - Gringoman
TTITLE14=Bad Moon Rising - The Mary Janes
TTITLE15=Long As I Can See The Light - Bellwether
TTITLE16=Penthouse Pauper - Star City
EXTD=
EXTT0=
EXTT1=
EXTT2=
EXTT3=
EXTT4=
EXTT5=
EXTT6=
EXTT7=
EXTT8=
EXTT9=
EXTT10=
EXTT11=
EXTT12=
EXTT13=
EXTT14=
EXTT15=
EXTT16=
PLAYORDER=
